<svg xmlns="http://www.w3.org/2000/svg" viewBox="0 0 1069.85 1202.12"><defs><style>.cls-1{fill:black;}</style></defs><g id="Layer_2" data-name="Layer 2"><g id="Layer_1-2" data-name="Layer 1"><path class="cls-1" d="M771.24,789.61a305.16,305.16,0,0,0,13.49-42l-106.66-170,93.35-147-.17-.42c-18.34-44.88-41.19-80.07-67.93-104.59s-55.21-41.24-84.88-50q-8.37-2.46-16.43-4.48L535.76,388.43l-65.11-118q-9.4,2.29-19.24,5.17c-29.67,8.74-58.24,25.55-84.89,50s-49.63,59.75-67.93,104.6q-1.66,4.08-3.24,8.34l93.08,149.17L285.73,750.12a302.52,302.52,0,0,0,12.87,39.5c18.3,44.86,41.15,80,67.92,104.58,25.2,23.11,52.1,39.38,80,48.46l89.21-150.74L620,943.68c29.11-8.84,57.14-25.47,83.32-49.49C730.06,869.69,752.91,834.5,771.24,789.61Z"/><path class="cls-1" d="M863.72,1104.43c-39.62,26.57-79.83,47.72-119.52,62.85l-.06,0,19.32,34.81h306.39L955.24,1019.43C927.73,1053.53,897,1082.06,863.72,1104.43Z"/><path class="cls-1" d="M206.12,1104.43c-33.11-22.21-63.63-50.52-91-84.38L0,1202.12H293l22.9-38.68C279.35,1148.64,242.47,1128.83,206.12,1104.43Z"/><path class="cls-1" d="M205,116.32c39.24-27.21,79.7-48.48,120.27-63.25Q336,49.16,346.67,45.7L321.46,0H21.76L133.57,179.19A429.33,429.33,0,0,1,205,116.32Z"/><path class="cls-1" d="M745.42,53.11c40,14.74,80.32,36,120,63.11a414.56,414.56,0,0,1,68.13,58.9L1044.74,0H755.09L728.47,47.15Q736.92,50,745.42,53.11Z"/></g></g></svg>